<svg width="86" height="80" viewBox="0 0 86 80" fill="none" xmlns="http://www.w3.org/2000/svg">
<path d="M64.4041 0.5C48.7166 0.5 42.9528 16.5312 42.9528 16.5312C42.9528 16.5312 37.2678 0.5 21.4728 0.5C9.60158 0.5 -3.9308 9.90822 1.06687 31.2951C6.06454 52.682 42.9957 79.3243 42.9957 79.3243C42.9957 79.3243 79.7909 52.682 84.7957 31.2951C89.7934 9.90822 77.2348 0.5 64.4041 0.5Z" fill="#F44336"/>
<path d="M19.0528 2.09668C31.3679 2.09668 37.4826 15.3355 39.4587 20.6983C39.738 21.4644 40.8048 21.4859 41.127 20.7413L42.9313 16.5241C40.3895 8.40463 33.4014 0.5 21.4728 0.5C16.5324 0.5 11.3128 2.13248 7.25311 5.57643C10.8403 3.22079 15.0432 2.09668 19.0528 2.09668Z" fill="#CC3333"/>
<path d="M64.4041 0.5C60.6165 0.5 57.1654 1.3234 54.4732 2.98451C56.3634 2.2542 58.7048 2.09668 61.0246 2.09668C72.6309 2.09668 83.0201 10.8963 78.3303 31.2378C74.3064 48.701 50.793 69.8874 43.6115 77.9711C43.1533 78.4866 42.9958 79.3171 42.9958 79.3171C42.9958 79.3171 79.7909 52.6748 84.7958 31.2879C89.7934 9.90822 77.2563 0.5 64.4041 0.5Z" fill="#CC3333"/>
<path d="M9.30801 11.8486C11.993 8.4977 16.7902 5.72679 20.8571 8.92014C23.0552 10.6457 22.0958 14.1827 20.1268 15.672C17.2628 17.8486 14.7711 19.1589 13.024 22.5671C11.9787 24.6148 11.3486 26.8559 11.0264 29.1399C10.8975 30.0421 9.71613 30.2641 9.27221 29.4693C6.2507 24.1136 5.3915 16.7388 9.30801 11.8486Z" fill="#FF8A80"/>
<path d="M52.3539 18.894C51.0937 18.894 50.2059 17.6768 50.6641 16.5026C51.5161 14.3403 52.6188 12.2495 53.9434 10.3879C55.9052 7.63851 59.6356 6.03467 61.9984 7.70295C64.4184 9.40702 64.1034 12.8152 62.4065 14.462C58.762 17.9918 54.1653 18.894 52.3539 18.894Z" fill="#FF8A80"/>
</svg>
