<svg width="86" height="86" viewBox="0 0 86 86" fill="none" xmlns="http://www.w3.org/2000/svg">
<mask id="mask0_1_168" style="mask-type:luminance" maskUnits="userSpaceOnUse" x="0" y="0" width="86" height="43">
<path d="M0 0.5H85.92V42.1064H0V0.5Z" fill="white"/>
</mask>
<g mask="url(#mask0_1_168)">
<path d="M31.7035 30.5649H54.1453L75.5184 -3.91711H53.0766L31.7035 30.5649Z" fill="url(#paint0_linear_1_168)"/>
</g>
<mask id="mask1_1_168" style="mask-type:luminance" maskUnits="userSpaceOnUse" x="0" y="0" width="86" height="43">
<path d="M0 0.5H85.92V42.1064H0V0.5Z" fill="white"/>
</mask>
<g mask="url(#mask1_1_168)">
<path d="M39.4691 30.5649H49.0157L70.3889 -3.98836H60.8422L39.4691 30.5649Z" fill="url(#paint1_linear_1_168)"/>
</g>
<mask id="mask2_1_168" style="mask-type:luminance" maskUnits="userSpaceOnUse" x="0" y="0" width="86" height="43">
<path d="M0 0.5H85.92V42.1064H0V0.5Z" fill="white"/>
</mask>
<g mask="url(#mask2_1_168)">
<path d="M46.0947 30.5649H54.1453L75.5184 -3.98836H67.5391L46.0947 30.5649Z" fill="url(#paint2_linear_1_168)"/>
</g>
<mask id="mask3_1_168" style="mask-type:luminance" maskUnits="userSpaceOnUse" x="0" y="0" width="86" height="43">
<path d="M0 0.5H85.92V42.1064H0V0.5Z" fill="white"/>
</mask>
<g mask="url(#mask3_1_168)">
<g opacity="0.2">
<path d="M71.6712 -1.7798L52.9341 28.4276H35.5506L54.2878 -1.7798H71.6712ZM75.5184 -3.91711H53.0766L31.7035 30.5649H54.074L75.5184 -3.91711Z" fill="#424242"/>
</g>
</g>
<mask id="mask4_1_168" style="mask-type:luminance" maskUnits="userSpaceOnUse" x="0" y="0" width="86" height="43">
<path d="M0 0.5H85.92V42.1064H0V0.5Z" fill="white"/>
</mask>
<g mask="url(#mask4_1_168)">
<path d="M55.6414 21.8731H29.9936C26.8589 21.8731 24.2941 24.4379 24.2941 27.5726V38.9716C24.2941 40.539 25.5765 41.8214 27.1439 41.8214C28.7112 41.8214 30.7061 40.539 30.7061 38.9716V31.8473C30.7061 31.0636 31.3473 30.4224 32.1309 30.4224H53.5041C54.2878 30.4224 54.929 31.0636 54.929 31.8473V38.9004C54.929 40.3253 56.5676 41.5364 57.9212 41.7502C58.1349 41.7502 58.2774 41.8214 58.4911 41.8214C60.0585 41.8214 61.3409 40.539 61.3409 38.9716V27.5726C61.3409 24.4379 58.7761 21.8731 55.6414 21.8731Z" fill="#FDD835"/>
</g>
<mask id="mask5_1_168" style="mask-type:luminance" maskUnits="userSpaceOnUse" x="0" y="0" width="86" height="43">
<path d="M0 0.5H85.92V42.1064H0V0.5Z" fill="white"/>
</mask>
<g mask="url(#mask5_1_168)">
<g opacity="0.2">
<path d="M55.6414 23.298C57.9924 23.298 59.916 25.2216 59.916 27.5726V38.9716C59.916 39.7553 59.2748 40.3965 58.4911 40.3965C58.4199 40.3965 58.2774 40.3965 58.2062 40.3965C57.3512 40.254 56.3538 39.4703 56.3538 38.9004V31.8473C56.3538 30.2799 55.0714 28.9975 53.5041 28.9975H32.1309C30.5636 28.9975 29.2812 30.2799 29.2812 31.8473V38.9716C29.2812 39.6128 28.1413 40.3965 27.1439 40.3965C26.3602 40.3965 25.719 39.7553 25.719 38.9716V27.5726C25.719 25.2216 27.6426 23.298 29.9936 23.298H55.6414ZM55.6414 21.8731H29.9936C26.8589 21.8731 24.2941 24.4379 24.2941 27.5726V38.9716C24.2941 40.539 25.5765 41.8214 27.1439 41.8214C28.7112 41.8214 30.7061 40.539 30.7061 38.9716V31.8473C30.7061 31.0636 31.3473 30.4224 32.1309 30.4224H53.5041C54.2878 30.4224 54.929 31.0636 54.929 31.8473V38.9004C54.929 40.3253 56.5676 41.5364 57.9212 41.7502C58.1349 41.7502 58.2774 41.8214 58.4911 41.8214C60.0585 41.8214 61.3409 40.539 61.3409 38.9716V27.5726C61.3409 24.4379 58.7761 21.8731 55.6414 21.8731Z" fill="#424242"/>
</g>
</g>
<mask id="mask6_1_168" style="mask-type:luminance" maskUnits="userSpaceOnUse" x="0" y="0" width="86" height="43">
<path d="M0 0.5H85.92V42.1064H0V0.5Z" fill="white"/>
</mask>
<g mask="url(#mask6_1_168)">
<path d="M54.1453 30.5649H31.7035L10.3303 -3.91711H32.7721L54.1453 30.5649Z" fill="url(#paint3_linear_1_168)"/>
</g>
<mask id="mask7_1_168" style="mask-type:luminance" maskUnits="userSpaceOnUse" x="0" y="0" width="86" height="43">
<path d="M0 0.5H85.92V42.1064H0V0.5Z" fill="white"/>
</mask>
<g mask="url(#mask7_1_168)">
<path d="M49.2295 30.5649H39.6828L18.3097 -3.98836H27.8563L49.2295 30.5649Z" fill="url(#paint4_linear_1_168)"/>
</g>
<mask id="mask8_1_168" style="mask-type:luminance" maskUnits="userSpaceOnUse" x="0" y="0" width="86" height="43">
<path d="M0 0.5H85.92V42.1064H0V0.5Z" fill="white"/>
</mask>
<g mask="url(#mask8_1_168)">
<path d="M54.074 30.5649H46.0947L24.7216 -3.98836H32.7009L54.074 30.5649Z" fill="url(#paint5_linear_1_168)"/>
</g>
<mask id="mask9_1_168" style="mask-type:luminance" maskUnits="userSpaceOnUse" x="0" y="0" width="86" height="43">
<path d="M0 0.5H85.92V42.1064H0V0.5Z" fill="white"/>
</mask>
<g mask="url(#mask9_1_168)">
<g opacity="0.2">
<path d="M31.561 -1.7798L50.2981 28.4276H32.9146L14.1775 -1.7798H31.561ZM32.7721 -3.91711H10.3303L31.7035 30.5649H54.074C54.1453 30.5649 32.7721 -3.91711 32.7721 -3.91711Z" fill="#424242"/>
</g>
</g>
<path d="M42.8175 85.9925C57.7693 85.9925 69.8902 73.8717 69.8902 58.9199C69.8902 43.9681 57.7693 31.8473 42.8175 31.8473C27.8657 31.8473 15.7449 43.9681 15.7449 58.9199C15.7449 73.8717 27.8657 85.9925 42.8175 85.9925Z" fill="url(#paint6_radial_1_168)"/>
<path opacity="0.2" d="M42.8175 33.9846C56.5676 33.9846 67.7528 45.1699 67.7528 58.9199C67.7528 72.6699 56.5676 83.8552 42.8175 83.8552C29.0675 83.8552 17.8822 72.6699 17.8822 58.9199C17.8822 45.1699 29.0675 33.9846 42.8175 33.9846ZM42.8175 31.8473C27.8563 31.8473 15.7449 43.9587 15.7449 58.9199C15.7449 73.8811 27.8563 85.9925 42.8175 85.9925C57.7787 85.9925 69.8901 73.8811 69.8901 58.9199C69.8901 43.9587 57.7787 31.8473 42.8175 31.8473Z" fill="#424242"/>
<path d="M44.3849 38.4017L49.3007 48.3046C49.5857 48.8033 50.0844 49.1595 50.5831 49.2307L61.5546 50.7981C61.6971 50.7981 61.8396 50.8694 61.9821 50.9406C59.1323 43.745 52.2929 38.5442 44.1711 37.9742C44.2424 38.188 44.3136 38.2592 44.3849 38.4017Z" fill="url(#paint7_radial_1_168)"/>
<path d="M24.0804 50.8693L35.0519 49.302C35.6219 49.2307 36.1206 48.8745 36.3343 48.3758L41.2501 38.4729C41.3214 38.3304 41.3926 38.2592 41.4639 38.1167C33.3421 38.6154 26.5027 43.8162 23.6529 51.0118C23.7954 50.9406 23.9379 50.8693 24.0804 50.8693Z" fill="url(#paint8_radial_1_168)"/>
<path d="M29.7087 74.0236L31.561 63.1233C31.6322 62.5533 31.4898 61.9834 31.0623 61.5559L23.1542 53.8616C23.0117 53.7191 22.9405 53.6479 22.8693 53.5054C22.4418 55.144 22.2281 56.8538 22.2281 58.6349C22.2281 65.0469 25.1491 70.7464 29.7087 74.5223C29.6374 74.3798 29.6374 74.1661 29.7087 74.0236Z" fill="url(#paint9_radial_1_168)"/>
<path d="M62.7658 53.5054C62.6945 53.6479 62.6233 53.7904 62.4808 53.8616L54.5727 61.5559C54.1453 61.9834 54.0028 62.5533 54.074 63.1233L55.9264 74.0236C55.9264 74.1661 55.9976 74.3798 55.9264 74.5223C60.486 70.7464 63.407 65.0469 63.407 58.6349C63.407 56.8538 63.1932 55.144 62.7658 53.5054Z" fill="url(#paint10_radial_1_168)"/>
<path d="M53.4328 75.8759L43.6724 70.7464C43.1737 70.4614 42.5325 70.4614 42.0338 70.7464L32.2734 75.8759C32.1309 75.9472 31.9172 76.0184 31.7747 76.0184C34.9807 78.0845 38.7566 79.2244 42.8888 79.2244C47.0209 79.2244 50.7968 78.0132 54.0028 76.0184C53.7178 75.9472 53.5753 75.9472 53.4328 75.8759Z" fill="url(#paint11_radial_1_168)"/>
<path opacity="0.2" d="M48.0183 40.8952C52.0792 42.1064 55.6414 44.6711 58.0637 48.2333L51.0818 47.2359L48.0183 40.8952ZM44.1711 38.0455C44.2424 38.188 44.3136 38.2592 44.3849 38.4017L49.3007 48.3046C49.5857 48.8033 50.0844 49.1595 50.5831 49.2307L61.5546 50.7981C61.6971 50.7981 61.8396 50.8694 61.9821 50.9406C59.0611 43.8162 52.2217 38.5442 44.1711 38.0455Z" fill="#424242"/>
<path opacity="0.2" d="M37.6167 40.8952L34.482 47.1647L27.5713 48.2333C29.9936 44.6711 33.5558 42.1064 37.6167 40.8952ZM41.4639 38.0455C33.3421 38.5442 26.5027 43.745 23.6529 50.9406C23.7954 50.8694 23.9379 50.7981 24.0804 50.7981L35.0519 49.2307C35.6219 49.1595 36.1206 48.8033 36.3343 48.3046L41.2501 38.4017C41.3214 38.2592 41.3926 38.188 41.4639 38.0455Z" fill="#424242"/>
<path opacity="0.2" d="M24.3654 57.9937L29.4237 62.9096L28.2125 69.8914C25.719 66.7567 24.3654 62.7671 24.3654 58.6349C24.3654 58.4212 24.3654 58.2075 24.3654 57.9937ZM22.8693 53.5054C22.4418 55.144 22.2281 56.8538 22.2281 58.6349C22.2281 65.0469 25.1491 70.7464 29.7087 74.5223C29.7087 74.3798 29.7087 74.1661 29.7087 74.0236L31.561 63.1233C31.6322 62.5533 31.4898 61.9834 31.0623 61.5559L23.1542 53.8616C23.0117 53.7191 22.9405 53.5766 22.8693 53.5054Z" fill="#424242"/>
<path opacity="0.2" d="M61.2696 57.9937V58.6349C61.2696 62.7671 59.916 66.7567 57.4225 69.9627L56.2113 62.9808L61.2696 57.9937ZM62.7658 53.5054C62.6945 53.6479 62.6233 53.7904 62.4808 53.8616L54.5727 61.5559C54.1453 61.9834 54.0028 62.5533 54.074 63.1233L55.9264 74.0236C55.9264 74.1661 55.9976 74.3798 55.9264 74.5223C60.486 70.7464 63.407 65.0469 63.407 58.6349C63.407 56.8538 63.1932 55.144 62.7658 53.5054Z" fill="#424242"/>
<path opacity="0.2" d="M42.8175 72.67L49.1582 76.0184C47.1634 76.7309 45.0261 77.1583 42.8175 77.1583C40.609 77.1583 38.5429 76.8021 36.4768 76.0184L42.8175 72.67ZM42.8175 70.4614C42.5325 70.4614 42.2476 70.5326 42.0338 70.6751L32.2734 75.8047C32.1309 75.8759 31.9172 75.9472 31.7747 75.9472C34.9807 78.0132 38.7566 79.1531 42.8888 79.1531C47.0209 79.1531 50.7968 77.942 54.0028 75.9472C53.8603 75.9472 53.7178 75.8759 53.5041 75.8047L43.7437 70.6751C43.3875 70.5326 43.1025 70.4614 42.8175 70.4614Z" fill="#424242"/>
<defs>
<linearGradient id="paint0_linear_1_168" x1="63.8426" y1="-3.00348" x2="41.5197" y2="32.6187" gradientUnits="userSpaceOnUse">
<stop offset="0.1848" stop-color="#1E88E5"/>
<stop offset="0.806" stop-color="#1565C0"/>
</linearGradient>
<linearGradient id="paint1_linear_1_168" x1="62.2457" y1="1.85377" x2="43.0989" y2="31.7762" gradientUnits="userSpaceOnUse">
<stop offset="0.461" stop-color="#EEEEEE"/>
<stop offset="1" stop-color="#BDBDBD"/>
</linearGradient>
<linearGradient id="paint2_linear_1_168" x1="68.6283" y1="0.538685" x2="50.8174" y2="29.5709" gradientUnits="userSpaceOnUse">
<stop offset="0.2565" stop-color="#E53935"/>
<stop offset="0.8859" stop-color="#C62828"/>
</linearGradient>
<linearGradient id="paint3_linear_1_168" x1="22.008" y1="-3.0007" x2="44.3308" y2="32.6215" gradientUnits="userSpaceOnUse">
<stop offset="0.1355" stop-color="#64B5F6"/>
<stop offset="0.9462" stop-color="#2196F3"/>
</linearGradient>
<linearGradient id="paint4_linear_1_168" x1="24.443" y1="-1.28715" x2="43.5897" y2="28.635" gradientUnits="userSpaceOnUse">
<stop offset="0.2104" stop-color="#FAFAFA"/>
<stop offset="0.7737" stop-color="#E0E0E0"/>
</linearGradient>
<linearGradient id="paint5_linear_1_168" x1="31.5834" y1="0.550654" x2="49.3944" y2="29.5829" gradientUnits="userSpaceOnUse">
<stop offset="0.2579" stop-color="#EF5350"/>
<stop offset="0.89" stop-color="#E53935"/>
</linearGradient>
<radialGradient id="paint6_radial_1_168" cx="0" cy="0" r="1" gradientUnits="userSpaceOnUse" gradientTransform="translate(27.8563 38.6154) scale(51.7066)">
<stop offset="0.2972" stop-color="#FFEB3B"/>
<stop offset="0.9544" stop-color="#FBC02D"/>
</radialGradient>
<radialGradient id="paint7_radial_1_168" cx="0" cy="0" r="1" gradientUnits="userSpaceOnUse" gradientTransform="translate(32.8576 41.3262) scale(38.8022 38.8022)">
<stop offset="0.0977" stop-color="#FDD835"/>
<stop offset="0.9508" stop-color="#F9A825"/>
</radialGradient>
<radialGradient id="paint8_radial_1_168" cx="0" cy="0" r="1" gradientUnits="userSpaceOnUse" gradientTransform="translate(32.8576 41.3262) scale(38.8022 38.8022)">
<stop offset="0.0977" stop-color="#FDD835"/>
<stop offset="0.9508" stop-color="#F9A825"/>
</radialGradient>
<radialGradient id="paint9_radial_1_168" cx="0" cy="0" r="1" gradientUnits="userSpaceOnUse" gradientTransform="translate(32.8576 41.3262) scale(38.8022 38.8022)">
<stop offset="0.0977" stop-color="#FDD835"/>
<stop offset="0.9508" stop-color="#F9A825"/>
</radialGradient>
<radialGradient id="paint10_radial_1_168" cx="0" cy="0" r="1" gradientUnits="userSpaceOnUse" gradientTransform="translate(32.8576 41.3262) scale(38.8022 38.8022)">
<stop offset="0.0977" stop-color="#FDD835"/>
<stop offset="0.9508" stop-color="#F9A825"/>
</radialGradient>
<radialGradient id="paint11_radial_1_168" cx="0" cy="0" r="1" gradientUnits="userSpaceOnUse" gradientTransform="translate(32.8576 41.3262) scale(38.8022 38.8022)">
<stop offset="0.0977" stop-color="#FDD835"/>
<stop offset="0.9508" stop-color="#F9A825"/>
</radialGradient>
</defs>
</svg>
