<svg width="86" height="87" viewBox="0 0 86 87" fill="none" xmlns="http://www.w3.org/2000/svg">
<path d="M42.9583 3.36384L2.86451 37.7299H5.72835V84.9833H80.1882V37.7299H83.052L42.9583 3.36384Z" fill="url(#paint0_radial_1_64)"/>
<path opacity="0.2" d="M42.9583 6.19188L78.384 36.5558C78.1692 36.8994 78.0403 37.3004 78.0403 37.7299V82.8354H7.87623V37.7299C7.87623 37.3004 7.74735 36.8994 7.53257 36.5629L42.9583 6.19188ZM42.9583 3.36384L2.86451 37.7299H5.72835V84.9833H80.1882V37.7299H83.052L42.9583 3.36384Z" fill="#424242"/>
<path d="M85.9159 86.4152H11.456V80.6875H83.052C84.6343 80.6875 85.9159 81.9691 85.9159 83.5514V86.4152Z" fill="#689F38"/>
<path opacity="0.2" d="M83.052 82.8354C83.4458 82.8354 83.768 83.1576 83.768 83.5514V84.2673H13.6039V82.8354H83.052ZM83.052 80.6875H11.456V86.4152H85.9159V83.5514C85.9159 81.9691 84.6343 80.6875 83.052 80.6875Z" fill="#424242"/>
<path opacity="0.2" d="M49.4019 19.115C50.1895 19.115 50.8338 19.7593 50.8338 20.5469V33.4342C50.8338 34.2217 50.1895 34.8661 49.4019 34.8661H36.5146C35.7271 34.8661 35.0827 34.2217 35.0827 33.4342V20.5469C35.0827 19.7593 35.7271 19.115 36.5146 19.115H49.4019ZM49.4019 17.683H36.5146C34.9324 17.683 33.6508 18.9646 33.6508 20.5469V33.4342C33.6508 35.0164 34.9324 36.298 36.5146 36.298H49.4019C50.9842 36.298 52.2658 35.0164 52.2658 33.4342V20.5469C52.2658 18.9646 50.9842 17.683 49.4019 17.683Z" fill="#424242"/>
<path opacity="0.2" d="M67.3009 43.4576C68.0885 43.4576 68.7328 44.102 68.7328 44.8895V64.9364C68.7328 65.724 68.0885 66.3683 67.3009 66.3683H54.4136C53.6261 66.3683 52.9817 65.724 52.9817 64.9364V44.8895C52.9817 44.102 53.6261 43.4576 54.4136 43.4576H67.3009ZM67.3009 42.0257H54.4136C52.8314 42.0257 51.5498 43.3073 51.5498 44.8895V64.9364C51.5498 66.5187 52.8314 67.8003 54.4136 67.8003H67.3009C68.8832 67.8003 70.1648 66.5187 70.1648 64.9364V44.8895C70.1648 43.3073 68.8832 42.0257 67.3009 42.0257Z" fill="#424242"/>
<path d="M42.9583 77.8237H17.1837V42.0257C17.1837 41.2381 17.8281 40.5938 18.6156 40.5938H41.5264C42.3139 40.5938 42.9583 41.2381 42.9583 42.0257V77.8237Z" fill="url(#paint1_radial_1_64)"/>
<path d="M40.0944 76.0839H20.0476C19.6538 76.0839 19.3316 75.7617 19.3316 75.368V43.0495C19.3316 42.6557 19.6538 42.3336 20.0476 42.3336H40.0944C40.4882 42.3336 40.8104 42.6557 40.8104 43.0495V75.368C40.8104 75.7617 40.4882 76.0839 40.0944 76.0839Z" fill="url(#paint2_radial_1_64)"/>
<path d="M36.1567 20.1889H49.7599V33.7921H36.1567V20.1889Z" fill="#4FC3F7"/>
<path d="M35.0827 20.5469V33.4342C35.0827 34.2217 35.7271 34.8661 36.5146 34.8661H49.4019C50.1895 34.8661 50.8338 34.2217 50.8338 33.4342V20.5469C50.8338 19.7593 50.1895 19.115 49.4019 19.115H36.5146C35.7271 19.115 35.0827 19.7593 35.0827 20.5469ZM49.4019 26.2746H43.6742V20.5469H49.4019V26.2746ZM42.2423 20.5469V26.2746H36.5146V20.5469H42.2423ZM36.5146 27.7065H42.2423V33.4342H36.5146V27.7065ZM43.6742 33.4342V27.7065H49.4019V33.4342H43.6742Z" fill="#EEEEEE"/>
<path d="M53.7192 44.5316H67.9954V65.2944H53.7192V44.5316Z" fill="#4FC3F7"/>
<path d="M37.9466 56.3449H22.1954C21.8017 56.3449 21.4795 56.0227 21.4795 55.6289V45.6055C21.4795 45.2117 21.8017 44.8895 22.1954 44.8895H37.9466C38.3403 44.8895 38.6625 45.2117 38.6625 45.6055V55.6289C38.6625 56.0227 38.3403 56.3449 37.9466 56.3449Z" fill="url(#paint3_radial_1_64)"/>
<path d="M37.9466 73.5279H22.1954C21.8017 73.5279 21.4795 73.2058 21.4795 72.812V59.9247C21.4795 59.5309 21.8017 59.2087 22.1954 59.2087H37.9466C38.3403 59.2087 38.6625 59.5309 38.6625 59.9247V72.812C38.6625 73.2058 38.3403 73.5279 37.9466 73.5279Z" fill="url(#paint4_radial_1_64)"/>
<path d="M45.8364 80.2007H14.3342V77.5803C14.3342 76.5994 15.1289 75.8047 16.1098 75.8047H44.068C45.0489 75.8047 45.8436 76.5994 45.8436 77.5803V80.2007H45.8364Z" fill="url(#paint5_linear_1_64)"/>
<path opacity="0.3" d="M44.068 76.5207C44.6479 76.5207 45.1276 76.9932 45.1276 77.5803V79.4847H15.0573V77.5803C15.0573 77.0004 15.5298 76.5207 16.1169 76.5207H44.068ZM44.068 75.8047H16.1098C15.1289 75.8047 14.3342 76.5994 14.3342 77.5803V80.2007H45.8364V77.5803C45.8364 76.5994 45.0417 75.8047 44.068 75.8047Z" fill="#263238"/>
<path d="M48.7003 84.2817H11.4703V81.2746C11.4703 80.2436 12.308 79.406 13.339 79.406H46.8316C47.8626 79.406 48.7003 80.2436 48.7003 81.2746V84.2817Z" fill="url(#paint6_linear_1_64)"/>
<path opacity="0.3" d="M46.8316 80.1219C47.4688 80.1219 47.9843 80.6374 47.9843 81.2746V83.5657H12.1863V81.2746C12.1863 80.6374 12.7018 80.1219 13.339 80.1219H46.8316ZM46.8316 79.406H13.339C12.308 79.406 11.4703 80.2436 11.4703 81.2746V84.2817H48.7003V81.2746C48.7003 80.2436 47.8698 79.406 46.8316 79.406Z" fill="#263238"/>
<path opacity="0.2" d="M29.0191 77.5824C29.0857 77.4259 28.889 77.1924 28.5798 77.0607C28.2706 76.929 27.9659 76.9491 27.8993 77.1055C27.8327 77.2619 28.0294 77.4955 28.3386 77.6272C28.6478 77.7589 28.9525 77.7388 29.0191 77.5824Z" fill="#424242"/>
<path opacity="0.2" d="M42.5154 79.0035C42.6101 78.8868 42.5127 78.6508 42.2978 78.4764C42.0829 78.3019 41.832 78.255 41.7373 78.3717C41.6425 78.4883 41.74 78.7243 41.9548 78.8988C42.1697 79.0732 42.4207 79.1201 42.5154 79.0035Z" fill="#424242"/>
<path opacity="0.08" d="M30.2858 78.7616C30.6931 78.7616 31.0232 78.6013 31.0232 78.4036C31.0232 78.2059 30.6931 78.0456 30.2858 78.0456C29.8785 78.0456 29.5483 78.2059 29.5483 78.4036C29.5483 78.6013 29.8785 78.7616 30.2858 78.7616Z" fill="#424242"/>
<path opacity="0.08" d="M36.6435 78.7115C37.0508 78.7115 37.381 78.5512 37.381 78.3535C37.381 78.1558 37.0508 77.9955 36.6435 77.9955C36.2362 77.9955 35.9061 78.1558 35.9061 78.3535C35.9061 78.5512 36.2362 78.7115 36.6435 78.7115Z" fill="#424242"/>
<path opacity="0.08" d="M35.1185 77.7521C35.3993 77.7521 35.6268 77.6143 35.6268 77.4442C35.6268 77.2742 35.3993 77.1364 35.1185 77.1364C34.8378 77.1364 34.6102 77.2742 34.6102 77.4442C34.6102 77.6143 34.8378 77.7521 35.1185 77.7521Z" fill="#424242"/>
<path opacity="0.08" d="M43.3879 78.0099C43.7912 78.0099 44.1181 77.8111 44.1181 77.566C44.1181 77.3208 43.7912 77.1221 43.3879 77.1221C42.9845 77.1221 42.6576 77.3208 42.6576 77.566C42.6576 77.8111 42.9845 78.0099 43.3879 78.0099Z" fill="#424242"/>
<path opacity="0.08" d="M25.8755 77.5731C26.1562 77.5731 26.3838 77.4641 26.3838 77.3297C26.3838 77.1952 26.1562 77.0863 25.8755 77.0863C25.5947 77.0863 25.3671 77.1952 25.3671 77.3297C25.3671 77.4641 25.5947 77.5731 25.8755 77.5731Z" fill="#424242"/>
<path opacity="0.08" d="M40.4944 78.1827C40.9479 78.1143 41.2888 77.8814 41.2559 77.6625C41.2229 77.4435 40.8284 77.3214 40.3749 77.3898C39.9214 77.4581 39.5804 77.691 39.6134 77.91C39.6464 78.1289 40.0408 78.251 40.4944 78.1827Z" fill="#424242"/>
<path opacity="0.2" d="M27.1286 78.7047C27.5597 78.6035 27.8682 78.3467 27.8176 78.1311C27.767 77.9155 27.3764 77.8229 26.9453 77.9241C26.5142 78.0253 26.2057 78.2822 26.2563 78.4977C26.307 78.7133 26.6975 78.806 27.1286 78.7047Z" fill="#424242"/>
<path opacity="0.2" d="M37.9537 77.702C38.5152 77.702 38.9704 77.5353 38.9704 77.3297C38.9704 77.1241 38.5152 76.9574 37.9537 76.9574C37.3922 76.9574 36.9371 77.1241 36.9371 77.3297C36.9371 77.5353 37.3922 77.702 37.9537 77.702Z" fill="#424242"/>
<path opacity="0.2" d="M32.0208 77.3758C32.3047 77.1886 32.4679 76.9352 32.3852 76.8098C32.3025 76.6843 32.0053 76.7343 31.7213 76.9214C31.4374 77.1085 31.2742 77.362 31.3569 77.4874C31.4396 77.6129 31.7368 77.5629 32.0208 77.3758Z" fill="#424242"/>
<path opacity="0.2" d="M34.6747 78.7371C34.7709 78.5289 34.4182 78.1611 33.887 77.9157C33.3557 77.6702 32.8471 77.64 32.7509 77.8482C32.6547 78.0564 33.0074 78.4242 33.5387 78.6696C34.0699 78.9151 34.5786 78.9452 34.6747 78.7371Z" fill="#424242"/>
<path opacity="0.2" d="M43.5511 81.5958C43.8967 81.4701 44.1297 81.2386 44.0716 81.0788C44.0135 80.919 43.6862 80.8914 43.3406 81.0171C42.995 81.1428 42.762 81.3742 42.8201 81.534C42.8782 81.6938 43.2055 81.7214 43.5511 81.5958Z" fill="#424242"/>
<path opacity="0.2" d="M28.5302 82.8723C28.7751 82.7052 28.9033 82.4665 28.8164 82.3391C28.7295 82.2117 28.4605 82.2439 28.2155 82.411C27.9705 82.5781 27.8423 82.8168 27.9292 82.9442C28.0161 83.0716 28.2852 83.0394 28.5302 82.8723Z" fill="#424242"/>
<path opacity="0.08" d="M41.4404 82.7137C41.8912 82.7137 42.2566 82.5534 42.2566 82.3557C42.2566 82.158 41.8912 81.9977 41.4404 81.9977C40.9897 81.9977 40.6243 82.158 40.6243 82.3557C40.6243 82.5534 40.9897 82.7137 41.4404 82.7137Z" fill="#424242"/>
<path opacity="0.08" d="M34.424 82.6707C34.8748 82.6707 35.2402 82.5105 35.2402 82.3128C35.2402 82.1151 34.8748 81.9548 34.424 81.9548C33.9733 81.9548 33.6078 82.1151 33.6078 82.3128C33.6078 82.5105 33.9733 82.6707 34.424 82.6707Z" fill="#424242"/>
<path opacity="0.08" d="M36.1065 81.7114C36.415 81.7114 36.665 81.5735 36.665 81.4035C36.665 81.2335 36.415 81.0956 36.1065 81.0956C35.7981 81.0956 35.5481 81.2335 35.5481 81.4035C35.5481 81.5735 35.7981 81.7114 36.1065 81.7114Z" fill="#424242"/>
<path opacity="0.08" d="M26.9924 81.9691C27.4352 81.9691 27.7942 81.7704 27.7942 81.5252C27.7942 81.2801 27.4352 81.0813 26.9924 81.0813C26.5495 81.0813 26.1905 81.2801 26.1905 81.5252C26.1905 81.7704 26.5495 81.9691 26.9924 81.9691Z" fill="#424242"/>
<path opacity="0.08" d="M46.3018 81.5324C46.6102 81.5324 46.8603 81.4234 46.8603 81.2889C46.8603 81.1545 46.6102 81.0455 46.3018 81.0455C45.9934 81.0455 45.7434 81.1545 45.7434 81.2889C45.7434 81.4234 45.9934 81.5324 46.3018 81.5324Z" fill="#424242"/>
<path opacity="0.08" d="M31.1396 81.8626C31.1681 81.643 30.7874 81.4128 30.2894 81.3483C29.7914 81.2838 29.3646 81.4095 29.3362 81.6291C29.3078 81.8487 29.6884 82.079 30.1864 82.1435C30.6844 82.208 31.1112 82.0822 31.1396 81.8626Z" fill="#424242"/>
<path opacity="0.2" d="M45.8911 82.4493C45.9347 82.2323 45.5836 81.9786 45.1067 81.8829C44.6299 81.7871 44.208 81.8855 44.1644 82.1026C44.1208 82.3196 44.472 82.5733 44.9488 82.669C45.4257 82.7648 45.8475 82.6664 45.8911 82.4493Z" fill="#424242"/>
<path opacity="0.2" d="M32.9778 81.6612C33.5946 81.6612 34.0947 81.4946 34.0947 81.2889C34.0947 81.0833 33.5946 80.9166 32.9778 80.9166C32.361 80.9166 31.8609 81.0833 31.8609 81.2889C31.8609 81.4946 32.361 81.6612 32.9778 81.6612Z" fill="#424242"/>
<path opacity="0.2" d="M40.2736 81.4425C40.3501 81.3086 40.1562 81.0537 39.8403 80.8731C39.5245 80.6926 39.2064 80.6548 39.1299 80.7887C39.0533 80.9225 39.2473 81.1774 39.5632 81.358C39.879 81.5385 40.1971 81.5763 40.2736 81.4425Z" fill="#424242"/>
<path opacity="0.2" d="M37.8241 82.6351C38.4105 82.3974 38.8148 82.0294 38.7271 81.8132C38.6395 81.597 38.0931 81.6144 37.5067 81.8521C36.9204 82.0898 36.5161 82.4577 36.6038 82.6739C36.6914 82.8902 37.2378 82.8728 37.8241 82.6351Z" fill="#424242"/>
<path d="M54.4136 43.4576C53.6261 43.4576 52.9817 44.102 52.9817 44.8895V64.9364C52.9817 65.724 53.6261 66.3683 54.4136 66.3683H67.3009C68.0885 66.3683 68.7328 65.724 68.7328 64.9364V44.8895C68.7328 44.102 68.0885 43.4576 67.3009 43.4576H54.4136ZM61.5732 44.8895H67.3009V50.6172H61.5732V44.8895ZM54.4136 44.8895H60.1413V50.6172H54.4136V44.8895ZM54.4136 52.0491H60.1413V57.7768H54.4136V52.0491ZM60.1413 64.9364H54.4136V59.2087H60.1413V64.9364ZM67.3009 64.9364H61.5732V59.2087H67.3009V64.9364ZM61.5732 57.7768V52.0491H67.3009V57.7768H61.5732Z" fill="#EEEEEE"/>
<path d="M37.7532 61.3566C39.3349 61.3566 40.6171 60.0744 40.6171 58.4928C40.6171 56.9111 39.3349 55.6289 37.7532 55.6289C36.1716 55.6289 34.8894 56.9111 34.8894 58.4928C34.8894 60.0744 36.1716 61.3566 37.7532 61.3566Z" fill="#FFC107"/>
<path d="M37.7532 56.3449C38.9417 56.3449 39.9011 57.3043 39.9011 58.4928C39.9011 59.6813 38.9417 60.6407 37.7532 60.6407C36.5648 60.6407 35.6054 59.6813 35.6054 58.4928C35.6054 57.3043 36.5719 56.3449 37.7532 56.3449ZM37.7532 54.913C35.7772 54.913 34.1734 56.5167 34.1734 58.4928C34.1734 60.4688 35.7772 62.0726 37.7532 62.0726C39.7293 62.0726 41.333 60.4688 41.333 58.4928C41.333 56.5167 39.7293 54.913 37.7532 54.913Z" fill="#C62828"/>
<path d="M69.4488 69.2322H52.2658C51.4782 69.2322 50.8338 68.5878 50.8338 67.8003V64.9364C50.8338 64.1489 51.4782 63.5045 52.2658 63.5045H69.4488C70.2364 63.5045 70.8807 64.1489 70.8807 64.9364V67.8003C70.8807 68.5878 70.2364 69.2322 69.4488 69.2322Z" fill="#795548"/>
<path opacity="0.2" d="M69.4488 64.9364V67.8003H52.2658V64.9364H69.4488ZM69.4488 63.5045H52.2658C51.4782 63.5045 50.8338 64.1489 50.8338 64.9364V67.8003C50.8338 68.5878 51.4782 69.2322 52.2658 69.2322H69.4488C70.2364 69.2322 70.8807 68.5878 70.8807 67.8003V64.9364C70.8807 64.1489 70.2364 63.5045 69.4488 63.5045Z" fill="#424242"/>
<path d="M84.6844 35.7252L45.2494 1.35915C43.932 0.213616 41.9846 0.213616 40.6672 1.35915L1.23212 35.7252C-0.242761 37.014 -0.414592 39.2692 0.852658 40.7728C2.11991 42.2763 4.33938 42.4481 5.81426 41.1594L41.5478 10.0223C42.3569 9.32063 43.5597 9.32063 44.3687 10.0223L80.1023 41.1594C80.7681 41.7393 81.5843 42.0185 82.3934 42.0185C83.3886 42.0185 84.3694 41.5961 85.0711 40.7656C86.3312 39.2764 86.1593 37.014 84.6844 35.7252Z" fill="url(#paint7_radial_1_64)"/>
<path d="M1.69749 85.6993C1.22496 85.6993 0.967212 85.1981 0.881296 84.9833C0.616391 84.3461 0.645029 83.4082 1.20348 82.8497C1.43259 82.6206 1.45406 82.234 1.30371 81.9548C0.960052 81.3462 0.81686 80.5873 0.895616 79.8212C1.13188 77.4299 2.99338 75.4539 5.42764 75.01C5.76414 74.9527 6.10065 74.9169 6.43715 74.9169C6.88104 74.9169 7.3321 74.9742 7.76883 75.0816C7.82611 75.0959 7.88339 75.1031 7.94066 75.1031C8.18409 75.1031 8.4132 74.9813 8.54923 74.7666C9.58021 73.1127 11.3486 72.1247 13.2889 72.1247C15.7518 72.1247 17.9569 73.7785 18.6443 76.1412C18.7373 76.4491 19.0166 76.6567 19.3316 76.6567C19.3745 76.6567 19.4175 76.6495 19.4676 76.6424C19.8184 76.5779 20.1693 76.5421 20.5129 76.5421C20.9497 76.5421 21.3864 76.5923 21.816 76.6996C24.1428 77.2653 25.8969 79.3201 26.0831 81.6827C26.1976 83.1648 25.7394 84.5752 24.8015 85.6993H1.69749Z" fill="url(#paint8_radial_1_64)"/>
<path d="M13.2889 72.8335C15.4368 72.8335 17.3555 74.2725 17.9569 76.3345C18.1359 76.9574 18.7087 77.3655 19.3316 77.3655C19.4175 77.3655 19.5106 77.3583 19.5965 77.3369C19.8972 77.2796 20.2051 77.2509 20.5058 77.2509C20.8852 77.2509 21.2647 77.2939 21.637 77.387C23.6703 77.881 25.2025 79.6709 25.36 81.7328C25.4531 82.9142 25.1237 84.0454 24.4435 84.9761L1.73329 84.9833C1.68317 84.9547 1.51134 84.747 1.45406 84.3604C1.40395 84.0454 1.45406 83.6087 1.71181 83.3438C2.06979 82.9929 2.3347 82.3199 1.9266 81.5897C1.65453 81.11 1.53998 80.5014 1.60442 79.8714C1.80488 77.8309 3.46591 76.0768 5.54936 75.6973C5.8429 75.6472 6.13644 75.6185 6.42999 75.6185C6.81661 75.6185 7.21038 75.6687 7.58984 75.7617C7.7044 75.7904 7.81895 75.8047 7.9335 75.8047C8.42036 75.8047 8.88573 75.5541 9.15064 75.1317C10.0456 73.6998 11.5921 72.8335 13.2889 72.8335ZM13.2889 71.4015C11.0265 71.4015 9.0504 72.59 7.94066 74.3799C7.46097 74.2654 6.9598 74.2009 6.43715 74.2009C6.06485 74.2009 5.68539 74.2367 5.29877 74.3012C2.60676 74.788 0.45172 77.0218 0.179655 79.7425C0.0221441 81.3391 0.709466 82.3271 0.695147 82.3414C-0.643699 83.6874 0.0937399 86.4152 1.69749 86.4152H25.1166C26.2692 85.1766 26.9351 83.4798 26.7919 81.6326C26.5843 78.9334 24.6154 76.6495 21.9806 76.0052C21.4795 75.8835 20.9855 75.8262 20.5129 75.8262C20.112 75.8262 19.7182 75.8691 19.3316 75.9407C18.5655 73.3203 16.1527 71.4015 13.2889 71.4015Z" fill="#689F38"/>
<path d="M7.09583 78.4895C7.09583 78.4895 7.03855 76.7641 8.42752 74.9169" stroke="#689F38" stroke-width="1.43192" stroke-miterlimit="10" stroke-linecap="round" stroke-linejoin="round"/>
<path d="M19.2242 76.6567C17.5918 76.6853 16.0024 77.9669 15.7589 79.5277" stroke="#689F38" stroke-width="1.43192" stroke-miterlimit="10" stroke-linecap="round" stroke-linejoin="round"/>
<path d="M17.5489 80.2508C16.1169 79.5993 14.191 79.6995 12.709 80.4584" stroke="#689F38" stroke-width="1.43192" stroke-miterlimit="10" stroke-linecap="round" stroke-linejoin="round"/>
<path opacity="0.2" d="M42.9583 2.64788C43.1874 2.64788 43.5239 2.70516 43.8389 2.98438L83.274 37.3505C83.8682 37.8731 83.9398 38.7896 83.4243 39.3981C83.0664 39.8205 82.6225 39.885 82.3934 39.885C82.1643 39.885 81.8278 39.8277 81.5127 39.5485L45.7792 8.4042C44.9988 7.72404 43.9964 7.34458 42.9583 7.34458C41.9201 7.34458 40.9178 7.71688 40.1374 8.4042L4.40382 39.5413C4.0888 39.8205 3.7523 39.8778 3.52319 39.8778C3.29408 39.8778 2.85019 39.8134 2.49221 39.391C1.97672 38.7824 2.04831 37.866 2.64256 37.3433L42.0776 2.97722C42.3927 2.70516 42.7292 2.64788 42.9583 2.64788ZM42.9583 0.5C42.1421 0.5 41.3259 0.786384 40.6672 1.35915L1.23212 35.7252C-0.242761 37.014 -0.414592 39.2692 0.852658 40.7728C1.54714 41.6033 2.528 42.0257 3.52319 42.0257C4.33222 42.0257 5.14842 41.7393 5.81426 41.1665L41.5478 10.0223C41.9488 9.67145 42.4571 9.49246 42.9583 9.49246C43.4594 9.49246 43.9678 9.67145 44.3687 10.0223L80.1023 41.1594C80.7681 41.7393 81.5843 42.0185 82.3934 42.0185C83.3885 42.0185 84.3694 41.5961 85.0711 40.7656C86.3383 39.2621 86.1665 37.0068 84.6916 35.7181L45.2493 1.35915C44.5907 0.786384 43.7745 0.5 42.9583 0.5Z" fill="#424242"/>
<defs>
<radialGradient id="paint0_radial_1_64" cx="0" cy="0" r="1" gradientUnits="userSpaceOnUse" gradientTransform="translate(42.9583 3.61579) scale(88.8865 88.8865)">
<stop stop-color="#FFD54F"/>
<stop offset="0.179" stop-color="#FFD34B"/>
<stop offset="0.3526" stop-color="#FFCE3F"/>
<stop offset="0.524" stop-color="#FFC62C"/>
<stop offset="0.693" stop-color="#FFBA11"/>
<stop offset="0.7785" stop-color="#FFB300"/>
<stop offset="1" stop-color="#FFB300"/>
</radialGradient>
<radialGradient id="paint1_radial_1_64" cx="0" cy="0" r="1" gradientUnits="userSpaceOnUse" gradientTransform="translate(29.6235 40.4148) scale(37.5893 37.5893)">
<stop stop-color="#D32F2F"/>
<stop offset="0.4374" stop-color="#CA2929"/>
<stop offset="0.9957" stop-color="#B71C1C"/>
</radialGradient>
<radialGradient id="paint2_radial_1_64" cx="0" cy="0" r="1" gradientUnits="userSpaceOnUse" gradientTransform="translate(29.9815 42.3837) scale(33.7425 33.7425)">
<stop stop-color="#EF5350"/>
<stop offset="1" stop-color="#E53935"/>
</radialGradient>
<radialGradient id="paint3_radial_1_64" cx="0" cy="0" r="1" gradientUnits="userSpaceOnUse" gradientTransform="translate(29.713 45.4265) scale(29.7947)">
<stop stop-color="#E53935"/>
<stop offset="0.4072" stop-color="#DC3431"/>
<stop offset="1" stop-color="#C62828"/>
</radialGradient>
<radialGradient id="paint4_radial_1_64" cx="0" cy="0" r="1" gradientUnits="userSpaceOnUse" gradientTransform="translate(29.713 45.4265) scale(29.7947)">
<stop stop-color="#E53935"/>
<stop offset="0.4072" stop-color="#DC3431"/>
<stop offset="1" stop-color="#C62828"/>
</radialGradient>
<linearGradient id="paint5_linear_1_64" x1="30.0882" y1="76.1555" x2="30.0882" y2="80.8307" gradientUnits="userSpaceOnUse">
<stop offset="0.0042918" stop-color="#BDBDBD"/>
<stop offset="0.2153" stop-color="#B5B5B5"/>
<stop offset="0.5502" stop-color="#9E9E9E"/>
<stop offset="0.9652" stop-color="#787878"/>
<stop offset="1" stop-color="#757575"/>
</linearGradient>
<linearGradient id="paint6_linear_1_64" x1="30.0882" y1="79.5563" x2="30.0882" y2="84.2029" gradientUnits="userSpaceOnUse">
<stop offset="0.0042918" stop-color="#BDBDBD"/>
<stop offset="0.3969" stop-color="#BABABA"/>
<stop offset="0.7025" stop-color="#B0B0B0"/>
<stop offset="0.9786" stop-color="#A0A0A0"/>
<stop offset="1" stop-color="#9E9E9E"/>
</linearGradient>
<radialGradient id="paint7_radial_1_64" cx="0" cy="0" r="1" gradientUnits="userSpaceOnUse" gradientTransform="translate(42.6003 0.32101) scale(48.4268)">
<stop stop-color="#F44336"/>
<stop offset="0.34" stop-color="#EE3F35"/>
<stop offset="0.8027" stop-color="#DC3531"/>
<stop offset="0.9957" stop-color="#D32F2F"/>
</radialGradient>
<radialGradient id="paint8_radial_1_64" cx="0" cy="0" r="1" gradientUnits="userSpaceOnUse" gradientTransform="translate(12.9169 72.9086) rotate(90) scale(17.3964 20.2094)">
<stop stop-color="#9CCC65"/>
<stop offset="0.2538" stop-color="#96C760"/>
<stop offset="0.5994" stop-color="#84B851"/>
<stop offset="0.9952" stop-color="#689F38"/>
</radialGradient>
</defs>
</svg>
