<svg width="86" height="87" viewBox="0 0 86 87" fill="none" xmlns="http://www.w3.org/2000/svg">
<path d="M42.8103 86.1993C66.4537 86.1993 85.6205 67.0325 85.6205 43.389C85.6205 19.7455 66.4537 0.578721 42.8103 0.578721C19.1668 0.578721 0 19.7455 0 43.389C0 67.0325 19.1668 86.1993 42.8103 86.1993Z" fill="url(#paint0_radial_1_110)"/>
<path opacity="0.2" d="M42.8103 2.72568C65.2316 2.72568 83.4736 20.9676 83.4736 43.389C83.4736 65.8104 65.2316 84.0523 42.8103 84.0523C20.3889 84.0523 2.14695 65.8104 2.14695 43.389C2.14695 20.9676 20.3889 2.72568 42.8103 2.72568ZM42.8103 0.578721C19.1651 0.578721 0 19.751 0 43.389C0 67.027 19.1651 86.1993 42.8103 86.1993C66.4554 86.1993 85.6205 67.0341 85.6205 43.389C85.6205 19.7439 66.4482 0.578721 42.8103 0.578721Z" fill="#434343"/>
<path d="M42.8103 73.203C59.2761 73.203 72.6243 59.8548 72.6243 43.389C72.6243 26.9232 59.2761 13.575 42.8103 13.575C26.3444 13.575 12.9962 26.9232 12.9962 43.389C12.9962 59.8548 26.3444 73.203 42.8103 73.203Z" fill="#FEFCE9"/>
<path d="M42.8103 62.504C53.3672 62.504 61.9253 53.9459 61.9253 43.389C61.9253 32.832 53.3672 24.2739 42.8103 24.2739C32.2533 24.2739 23.6952 32.832 23.6952 43.389C23.6952 53.9459 32.2533 62.504 42.8103 62.504Z" fill="url(#paint1_radial_1_110)"/>
<path d="M42.8103 49.1214C45.9762 49.1214 48.5426 46.5549 48.5426 43.389C48.5426 40.2231 45.9762 37.6566 42.8103 37.6566C39.6444 37.6566 37.0779 40.2231 37.0779 43.389C37.0779 46.5549 39.6444 49.1214 42.8103 49.1214Z" fill="#FEFCE9"/>
<path d="M75.766 10.6479L76.0165 4.60784C76.131 1.88836 73.7121 -0.0367384 71.0284 0.635974L66.0475 1.87405C64.3299 2.30344 62.9559 3.69896 62.5623 5.42368L57.1305 29.2835L57.1734 29.262L75.7803 10.6551L75.766 10.6479Z" fill="#09BCD4"/>
<path d="M75.7732 10.6479L81.8133 10.3975C84.5327 10.283 86.4579 12.7019 85.7851 15.3856L84.5471 20.3665C84.1177 22.084 82.7222 23.4581 80.9974 23.8517L57.1376 29.2835L57.1591 29.2406L75.766 10.6336L75.7732 10.6479Z" fill="#38A4DD"/>
<path d="M43.7621 44.1977C42.7602 45.0922 41.3647 43.6967 42.2521 42.6948L69.1105 13.0311C70.2913 11.8502 72.2092 11.8502 73.3901 13.0311C74.5709 14.2119 74.5709 16.1298 73.3901 17.3107L43.7621 44.1977Z" fill="#1B87C9"/>
<path opacity="0.2" d="M72.0947 1.9313C72.8032 1.9313 73.4473 2.19609 73.9125 2.68274C74.3777 3.16222 74.6138 3.82778 74.5852 4.55059L74.3347 10.5764C74.3204 10.8555 74.392 11.1274 74.5279 11.3564C74.5924 11.4638 74.6639 11.5568 74.7498 11.6427C75.0146 11.9146 75.3867 12.0792 75.7732 12.0792H75.8304L81.8562 11.8288H81.9779C82.7794 11.8288 83.4807 12.158 83.9459 12.752C84.4326 13.3674 84.59 14.2047 84.3825 15.0349L83.1444 20.0158C82.851 21.1966 81.8562 22.1771 80.6682 22.449L60.8876 26.9576C60.6443 27.0149 60.4225 27.1294 60.2435 27.294L48.3065 38.1433L59.1128 26.2062C59.2774 26.0273 59.3919 25.8054 59.4492 25.5621L63.9649 5.73857C64.2369 4.55059 65.2102 3.55583 66.3981 3.26241L71.3791 2.02434C71.6152 1.95993 71.8586 1.9313 72.0947 1.9313ZM72.0947 0.5C71.7441 0.5 71.3862 0.542939 71.0284 0.635974L66.0475 1.87405C64.3299 2.30344 62.9559 3.69896 62.5622 5.42368L58.0465 25.2472L42.2521 42.6877C41.5579 43.4677 42.2449 44.4768 43.0536 44.4768C43.2898 44.4768 43.5331 44.3909 43.7549 44.1905L61.2097 28.3603L80.9903 23.8517C82.7078 23.4581 84.1105 22.084 84.5399 20.3665L85.778 15.3856C86.4292 12.7591 84.6043 10.3975 81.985 10.3975C81.9278 10.3975 81.8634 10.3975 81.799 10.4046L75.7732 10.6551H75.7589V10.6408L76.0093 4.615C76.1095 2.25335 74.3204 0.5 72.0947 0.5Z" fill="#434343"/>
<defs>
<radialGradient id="paint0_radial_1_110" cx="0" cy="0" r="1" gradientUnits="userSpaceOnUse" gradientTransform="translate(30.5762 23.3243) scale(44.5006)">
<stop offset="0.4707" stop-color="#EF5451"/>
<stop offset="0.8338" stop-color="#E53A35"/>
</radialGradient>
<radialGradient id="paint1_radial_1_110" cx="0" cy="0" r="1" gradientUnits="userSpaceOnUse" gradientTransform="translate(39.1161 36.0078) scale(21.9361)">
<stop offset="0.4707" stop-color="#EF5451"/>
<stop offset="0.8338" stop-color="#E53A35"/>
</radialGradient>
</defs>
</svg>
