<svg width="86" height="86" viewBox="0 0 86 86" fill="none" xmlns="http://www.w3.org/2000/svg">
<path d="M34.421 22.8303H85.92V85.8699H34.421V22.8303Z" fill="#F06292"/>
<path d="M48.7697 22.8303H57.366V85.8699H48.7697V22.8303Z" fill="#F48FB1"/>
<path d="M63.0682 22.8303H71.6645V85.8699H63.0682V22.8303Z" fill="#F48FB1"/>
<path d="M77.3166 22.8303H85.9129V85.8699H77.3166V22.8303Z" fill="#F48FB1"/>
<path d="M34.421 22.8303H43.0173V85.8699H34.421V22.8303Z" fill="#F48FB1"/>
<path opacity="0.2" d="M83.7638 24.9794V83.7208H36.5701V24.9794H83.7638ZM85.9129 22.8303H34.421V85.8699H85.92V22.8303H85.9129Z" fill="#424242"/>
<path d="M76.6861 32.7376C78.2687 32.7376 79.5516 31.4547 79.5516 29.8721C79.5516 28.2896 78.2687 27.0067 76.6861 27.0067C75.1036 27.0067 73.8207 28.2896 73.8207 29.8721C73.8207 31.4547 75.1036 32.7376 76.6861 32.7376Z" fill="#AD1457"/>
<path d="M43.7337 32.7376C45.3162 32.7376 46.5991 31.4547 46.5991 29.8721C46.5991 28.2896 45.3162 27.0067 43.7337 27.0067C42.1511 27.0067 40.8682 28.2896 40.8682 29.8721C40.8682 31.4547 42.1511 32.7376 43.7337 32.7376Z" fill="#AD1457"/>
<path d="M78.8352 18.6182C78.8352 8.33125 70.4968 0 60.2171 0C49.9302 0 41.5989 8.33841 41.5989 18.6182V29.3349C41.5989 30.524 42.5588 31.4839 43.748 31.4839C44.9372 31.4839 45.8971 30.524 45.8971 29.3349V27.1858H45.8899V18.9692C45.8899 11.211 51.9073 4.59902 59.6583 4.30531C67.8033 3.99728 74.5299 10.5376 74.5299 18.6182V27.1858H74.4798V29.3062C74.4798 30.5097 75.454 31.4839 76.6575 31.4839C77.861 31.4839 78.8352 30.5097 78.8352 29.3062V18.6182Z" fill="url(#paint0_linear_1_88)"/>
<path opacity="0.2" d="M60.2171 0.716358C70.0885 0.716358 78.1189 8.74673 78.1189 18.6182V29.3062C78.1189 30.1085 77.467 30.7676 76.6575 30.7676C75.848 30.7676 75.1961 30.1157 75.1961 29.3062V27.4508C75.2319 27.3649 75.2463 27.2789 75.2463 27.1858V18.6182C75.2463 10.3227 68.4982 3.58179 60.2099 3.58179C60.0165 3.58179 59.8231 3.58895 59.6297 3.59612C51.6638 3.89699 45.1807 10.7955 45.1807 18.9692V27.1858C45.1807 27.2144 45.1807 27.2431 45.1879 27.2718V29.3277C45.1879 30.1157 44.5432 30.7604 43.7552 30.7604C42.9672 30.7604 42.3224 30.1157 42.3224 29.3277V18.6182C42.3153 8.74673 50.3457 0.716358 60.2171 0.716358ZM60.2171 0C49.9302 0 41.5989 8.33841 41.5989 18.6182V29.3349C41.5989 30.524 42.5588 31.4839 43.748 31.4839C44.9372 31.4839 45.8971 30.524 45.8971 29.3349V27.1858H45.8899V18.9692C45.8899 11.211 51.9073 4.59902 59.6583 4.30531C59.8446 4.29815 60.0308 4.29815 60.2099 4.29815C68.1113 4.29815 74.5299 10.7239 74.5299 18.6182V27.1858H74.4798V29.3062C74.4798 30.5097 75.454 31.4839 76.6575 31.4839C77.861 31.4839 78.8352 30.5097 78.8352 29.3062V18.6182C78.8352 8.33841 70.504 0 60.2171 0Z" fill="#424242"/>
<path opacity="0.4" d="M71.994 85.8699H51.2196V48.4401L71.994 85.8699Z" fill="url(#paint1_linear_1_88)"/>
<path d="M0 48.698H51.5778V85.9487H0V48.698Z" fill="#C5E1A5"/>
<path d="M51.5778 54.4977V63.094H0V54.4977H51.5778Z" fill="#AED581"/>
<path d="M51.5778 71.6903V80.2866H-5.46538e-06V71.6903H51.5778Z" fill="#AED581"/>
<path d="M40.1519 57.8101C41.7344 57.8101 43.0173 56.5272 43.0173 54.9447C43.0173 53.3621 41.7344 52.0792 40.1519 52.0792C38.5693 52.0792 37.2864 53.3621 37.2864 54.9447C37.2864 56.5272 38.5693 57.8101 40.1519 57.8101Z" fill="#7CB342"/>
<path d="M11.4976 57.8101C13.0801 57.8101 14.363 56.5272 14.363 54.9447C14.363 53.3621 13.0801 52.0792 11.4976 52.0792C9.91502 52.0792 8.63213 53.3621 8.63213 54.9447C8.63213 56.5272 9.91502 57.8101 11.4976 57.8101Z" fill="#7CB342"/>
<path d="M9.29833 58.0107C9.29833 67.1228 16.6267 74.5084 25.66 74.5084C34.6932 74.5084 42.0216 67.1228 42.0216 58.0107V54.8659C42.0216 53.8128 41.1763 52.9604 40.1304 52.9604C39.0845 52.9604 38.2392 53.8128 38.2392 54.8659V56.7642H38.2464V57.6955C38.2464 64.5654 32.9596 70.4252 26.1471 70.6902C18.9835 70.9624 13.0735 65.1671 13.0735 58.0107V56.7642H13.1165V54.8802C13.1165 53.8128 12.2641 52.9532 11.2038 52.9532C10.1508 52.9532 9.29117 53.8128 9.29117 54.8802V58.0107H9.29833Z" fill="#F06292"/>
<path opacity="0.2" d="M40.1304 53.6767C40.7751 53.6767 41.3052 54.214 41.3052 54.8659V58.0107C41.3052 66.7144 34.2849 73.7921 25.66 73.7921C17.035 73.7921 10.0147 66.7144 10.0147 58.0107V54.8874C10.0147 54.2212 10.552 53.6767 11.211 53.6767C11.8701 53.6767 12.4073 54.2212 12.4073 54.8874V56.5135C12.3787 56.5923 12.3643 56.6783 12.3643 56.7642V58.0107C12.3643 65.4035 18.3316 71.4137 25.6671 71.4137C25.839 71.4137 26.011 71.4137 26.1829 71.4066C33.2319 71.1344 38.9699 64.988 38.9699 57.7027V56.7714C38.9699 56.7427 38.9699 56.7141 38.9627 56.6854V54.8659C38.9556 54.214 39.4785 53.6767 40.1304 53.6767ZM40.1304 52.9604C39.0845 52.9604 38.2392 53.8128 38.2392 54.8659V56.7642H38.2464V57.6955C38.2464 64.5654 32.9596 70.4252 26.1471 70.6902C25.9823 70.6974 25.8247 70.6974 25.66 70.6974C18.7184 70.6974 13.0735 65.0023 13.0735 58.0107V56.7642H13.1165V54.8802C13.1165 53.8128 12.2641 52.9532 11.2038 52.9532C10.1508 52.9532 9.29117 53.8128 9.29117 54.8802V58.0035C9.29117 67.1156 16.6195 74.5013 25.6528 74.5013C34.6861 74.5013 42.0144 67.1156 42.0144 58.0035V54.8587C42.0216 53.8128 41.1763 52.9604 40.1304 52.9604Z" fill="#424242"/>
<path opacity="0.2" d="M49.4287 50.8471V83.7996H2.14907V50.8471H49.4287ZM51.5778 48.698H0V85.9487H51.5778V48.698Z" fill="#424242"/>
<defs>
<linearGradient id="paint0_linear_1_88" x1="60.2178" y1="1.33959" x2="60.2178" y2="31.5749" gradientUnits="userSpaceOnUse">
<stop offset="0.4739" stop-color="#AED581"/>
<stop offset="1" stop-color="#8BC34A"/>
</linearGradient>
<linearGradient id="paint1_linear_1_88" x1="49.9037" y1="67.155" x2="69.4868" y2="67.155" gradientUnits="userSpaceOnUse">
<stop offset="0.3169" stop-color="#E91E63"/>
<stop offset="0.8143" stop-color="#F06292" stop-opacity="0.3"/>
</linearGradient>
</defs>
</svg>
